<?xml version="1.0" standalone="no"?>
<!DOCTYPE svg PUBLIC "-//W3C//DTD SVG 20010904//EN"
 "http://www.w3.org/TR/2001/REC-SVG-20010904/DTD/svg10.dtd">
<svg version="1.0" xmlns="http://www.w3.org/2000/svg"
 width="500.000000pt" height="500.000000pt" viewBox="0 0 500.000000 500.000000"
 preserveAspectRatio="xMidYMid meet">

<g transform="translate(0.000000,500.000000) scale(0.100000,-0.100000)"
fill="#000000" stroke="none">
<path d="M1817 3513 c-94 -281 -129 -442 -107 -482 6 -12 16 -19 21 -15 7 4 7
10 0 17 -15 15 -14 44 5 134 16 81 100 368 115 393 4 8 5 -74 2 -185 -6 -215
1 -283 39 -330 24 -31 65 -33 100 -5 36 28 91 138 131 265 61 190 108 402 83
374 -2 -2 -20 -71 -40 -153 -67 -267 -134 -441 -183 -473 -82 -54 -121 65
-110 342 4 88 10 188 13 223 5 40 3 62 -3 62 -6 0 -36 -75 -66 -167z"/>
<path d="M2407 3540 c-4 -8 -18 -58 -32 -110 -44 -163 -41 -156 -96 -180 -53
-22 -90 -23 -97 -2 -2 7 6 12 20 12 24 0 48 16 48 32 0 4 -13 8 -28 8 -33 0
-62 -27 -62 -58 0 -39 57 -38 152 2 13 6 15 3 11 -13 -7 -29 3 -26 53 14 50
41 74 45 74 11 0 -42 25 -53 78 -34 41 15 48 15 62 3 22 -20 50 -19 110 4 49
19 50 19 50 0 0 -27 9 -24 51 17 44 43 68 41 61 -5 -6 -40 6 -39 48 4 19 19
37 35 41 35 3 0 10 -15 15 -32 12 -41 33 -46 85 -19 48 25 46 25 52 1 6 -24
36 -26 78 -4 28 14 32 14 44 -2 12 -17 14 -17 38 -1 22 14 27 14 37 2 16 -19
37 -19 74 0 35 18 36 18 36 0 0 -22 7 -19 54 20 50 41 76 45 76 12 0 -49 33
-58 95 -27 22 11 41 20 42 20 2 0 3 -416 3 -925 0 -816 2 -925 15 -925 13 0
15 111 15 938 0 516 -3 941 -6 944 -3 4 -27 -7 -54 -24 -58 -36 -83 -34 -90 7
-7 41 -46 46 -89 10 -19 -17 -31 -22 -31 -13 0 7 16 72 35 143 38 142 39 145
27 145 -4 0 -23 -57 -41 -127 -41 -155 -41 -155 -84 -178 -46 -24 -71 -15 -65
25 6 39 -4 38 -37 -6 -29 -37 -41 -39 -30 -5 3 12 13 21 21 21 8 0 14 5 14 10
0 17 -27 11 -57 -14 -67 -55 -103 -57 -103 -6 0 16 -2 30 -4 30 -2 0 -18 -14
-36 -30 -57 -53 -99 -50 -100 8 0 35 -43 29 -75 -10 -21 -27 -26 -29 -24 -13
1 11 1 26 0 33 -2 21 -44 13 -74 -15 l-30 -28 5 28 c6 32 -2 34 -27 7 -22 -24
-95 -53 -125 -48 -29 4 -39 28 -12 28 31 0 52 11 52 26 0 24 -40 15 -100 -22
-70 -43 -94 -42 -98 4 -3 26 -8 32 -26 32 -13 0 -40 -11 -60 -25 l-36 -25 6
28 c3 15 19 78 36 140 16 62 27 119 25 125 -3 8 -7 7 -10 -3z"/>
<path d="M3116 3344 c-4 -10 -1 -14 6 -12 15 5 23 28 10 28 -5 0 -13 -7 -16
-16z"/>
<path d="M3610 2250 c0 -560 3 -850 10 -850 7 0 10 290 10 850 0 560 -3 850
-10 850 -7 0 -10 -290 -10 -850z"/>
<path d="M3530 2160 c0 -669 2 -760 15 -760 13 0 15 91 15 760 0 669 -2 760
-15 760 -13 0 -15 -91 -15 -760z"/>
<path d="M3450 2085 c0 -602 2 -685 15 -685 13 0 15 83 15 685 0 602 -2 685
-15 685 -13 0 -15 -83 -15 -685z"/>
<path d="M3377 2643 c-4 -3 -7 -285 -7 -625 0 -543 2 -618 15 -618 13 0 15 76
15 625 0 344 -4 625 -8 625 -5 0 -12 -3 -15 -7z"/>
<path d="M3300 1970 c0 -500 2 -570 15 -570 13 0 15 70 15 570 0 500 -2 570
-15 570 -13 0 -15 -70 -15 -570z"/>
<path d="M3220 1920 c0 -456 2 -520 15 -520 13 0 15 64 15 520 0 456 -2 520
-15 520 -13 0 -15 -64 -15 -520z"/>
<path d="M3140 1875 c0 -416 2 -475 15 -475 13 0 15 59 15 475 0 416 -2 475
-15 475 -13 0 -15 -59 -15 -475z"/>
<path d="M3070 1835 c0 -283 3 -435 10 -435 7 0 10 152 10 435 0 283 -3 435
-10 435 -7 0 -10 -152 -10 -435z"/>
<path d="M2990 1800 c0 -349 2 -400 15 -400 13 0 15 51 15 400 0 349 -2 400
-15 400 -13 0 -15 -51 -15 -400z"/>
<path d="M2910 1765 c0 -318 2 -365 15 -365 13 0 15 47 15 365 0 318 -2 365
-15 365 -13 0 -15 -47 -15 -365z"/>
<path d="M2830 1735 c0 -291 2 -335 15 -335 13 0 15 44 15 335 0 291 -2 335
-15 335 -13 0 -15 -44 -15 -335z"/>
<path d="M2760 1710 c0 -269 2 -310 15 -310 13 0 15 41 15 310 0 269 -2 310
-15 310 -13 0 -15 -41 -15 -310z"/>
<path d="M2680 1685 c0 -247 2 -285 15 -285 13 0 15 38 15 285 0 247 -2 285
-15 285 -13 0 -15 -38 -15 -285z"/>
<path d="M2600 1660 c0 -224 2 -260 15 -260 13 0 15 36 15 260 0 224 -2 260
-15 260 -13 0 -15 -36 -15 -260z"/>
<path d="M2530 1635 c0 -150 4 -235 10 -235 6 0 10 85 10 235 0 150 -4 235
-10 235 -6 0 -10 -85 -10 -235z"/>
<path d="M2450 1615 c0 -184 2 -215 15 -215 13 0 15 31 15 215 0 184 -2 215
-15 215 -13 0 -15 -31 -15 -215z"/>
<path d="M2370 1595 c0 -167 2 -195 15 -195 13 0 15 28 15 195 0 167 -2 195
-15 195 -13 0 -15 -28 -15 -195z"/>
<path d="M2300 1580 c0 -113 4 -180 10 -180 6 0 10 67 10 180 0 113 -4 180
-10 180 -6 0 -10 -67 -10 -180z"/>
<path d="M2220 1560 c0 -136 2 -160 15 -160 13 0 15 24 15 160 0 136 -2 160
-15 160 -13 0 -15 -24 -15 -160z"/>
<path d="M2140 1550 c0 -127 2 -150 15 -150 13 0 15 23 15 150 0 127 -2 150
-15 150 -13 0 -15 -23 -15 -150z"/>
<path d="M2067 1663 c-4 -3 -7 -64 -7 -135 0 -107 2 -128 15 -128 13 0 15 22
15 135 0 123 -4 147 -23 128z"/>
<path d="M1990 1520 c0 -73 4 -120 10 -120 6 0 10 47 10 120 0 73 -4 120 -10
120 -6 0 -10 -47 -10 -120z"/>
<path d="M1910 1510 c0 -91 3 -110 15 -110 12 0 15 19 15 110 0 91 -3 110 -15
110 -12 0 -15 -19 -15 -110z"/>
<path d="M1837 1593 c-4 -3 -7 -48 -7 -100 0 -76 3 -93 15 -93 12 0 15 18 15
100 0 92 -5 112 -23 93z"/>
<path d="M1760 1490 c0 -53 4 -90 10 -90 6 0 10 37 10 90 0 53 -4 90 -10 90
-6 0 -10 -37 -10 -90z"/>
<path d="M1680 1480 c0 -64 3 -80 15 -80 12 0 15 16 15 80 0 64 -3 80 -15 80
-12 0 -15 -16 -15 -80z"/>
<path d="M1600 1475 c0 -60 3 -75 15 -75 12 0 15 15 15 75 0 60 -3 75 -15 75
-12 0 -15 -15 -15 -75z"/>
<path d="M1527 1533 c-4 -3 -7 -35 -7 -70 0 -49 3 -63 15 -63 12 0 15 14 15
70 0 64 -6 81 -23 63z"/>
<path d="M1450 1466 c0 -53 3 -66 15 -66 13 0 15 11 13 62 -2 38 -8 63 -15 66
-10 3 -13 -14 -13 -62z"/>
<path d="M1307 1513 c-11 -10 -8 -113 3 -113 6 0 10 27 10 60 0 61 -1 65 -13
53z"/>
<path d="M1370 1460 c0 -47 3 -60 15 -60 12 0 15 13 15 60 0 47 -3 60 -15 60
-12 0 -15 -13 -15 -60z"/>
<path d="M1411 1178 c-1 -21 4 -28 17 -28 11 0 13 3 6 8 -7 4 -14 16 -17 27
-4 15 -5 14 -6 -7z"/>
<path d="M1510 1175 c0 -20 5 -25 23 -24 19 1 19 2 3 6 -11 3 -14 8 -9 12 7 4
6 11 -3 19 -12 11 -14 9 -14 -13z"/>
<path d="M1623 1178 c-9 -21 -8 -23 17 -23 17 0 26 4 23 12 -3 6 -12 9 -21 5
-15 -5 -15 -4 -3 11 7 9 9 17 4 17 -5 0 -14 -10 -20 -22z"/>
<path d="M1763 1180 c-1 -11 2 -22 6 -24 3 -3 8 6 9 20 1 13 -2 24 -6 24 -4 0
-8 -9 -9 -20z"/>
<path d="M1851 1174 c0 -25 2 -26 9 -9 7 18 8 19 15 3 11 -27 25 -21 25 10 0
20 -3 23 -9 13 -8 -12 -12 -12 -25 -2 -14 12 -16 10 -15 -15z"/>
<path d="M2070 1190 c0 -5 5 -10 10 -10 6 0 10 -7 10 -15 0 -8 5 -15 10 -15 6
0 10 4 10 9 0 5 3 18 6 28 5 15 4 16 -6 3 -9 -11 -13 -12 -17 -2 -6 14 -23 16
-23 2z"/>
<path d="M2192 1175 c0 -16 2 -24 5 -17 2 6 11 12 18 12 7 0 16 -6 18 -12 3
-7 5 1 5 17 0 17 -2 24 -5 18 -2 -7 -11 -13 -18 -13 -7 0 -16 6 -18 13 -3 6
-5 -1 -5 -18z"/>
<path d="M2312 1175 c0 -16 2 -22 5 -12 2 9 2 23 0 30 -3 6 -5 -1 -5 -18z"/>
<path d="M2391 1178 c-1 -23 3 -28 22 -27 15 1 17 3 5 6 -9 2 -19 14 -21 26
-4 18 -5 17 -6 -5z"/>
<path d="M2490 1175 c0 -19 5 -25 23 -24 21 0 21 1 2 8 l-20 8 20 5 c17 5 18
6 2 7 -10 0 -15 6 -12 11 3 6 1 10 -4 10 -6 0 -11 -11 -11 -25z"/>
<path d="M2681 1195 c0 -5 3 -18 7 -27 6 -15 9 -13 19 8 10 21 10 24 -2 14
-10 -8 -14 -8 -18 2 -3 7 -5 9 -6 3z"/>
<path d="M2790 1189 c0 -5 5 -7 10 -4 6 3 10 8 10 11 0 2 -4 4 -10 4 -5 0 -10
-5 -10 -11z"/>
<path d="M2828 1178 c4 -18 2 -20 -18 -15 -16 4 -20 3 -12 -5 6 -6 18 -8 26
-5 17 7 21 32 7 41 -5 4 -7 -4 -3 -16z"/>
<path d="M2914 1175 c1 -20 36 -36 36 -16 0 6 -6 8 -14 5 -9 -3 -16 2 -19 13
-3 15 -4 15 -3 -2z"/>
<path d="M3110 1175 c0 -14 2 -25 4 -25 2 0 6 11 8 25 3 14 1 25 -3 25 -5 0
-9 -11 -9 -25z"/>
<path d="M3210 1175 c0 -20 5 -25 23 -24 19 1 19 2 3 6 -11 3 -14 8 -9 12 7 4
6 11 -3 19 -12 11 -14 9 -14 -13z"/>
<path d="M3323 1183 c-3 -10 -8 -21 -9 -24 -2 -3 8 -4 21 -1 28 5 27 4 19 26
-8 21 -23 20 -31 -1z m22 -3 c3 -5 1 -10 -4 -10 -6 0 -11 5 -11 10 0 6 2 10 4
10 3 0 8 -4 11 -10z"/>
<path d="M3432 1178 c2 -14 11 -24 23 -25 17 -2 17 -1 2 3 -13 4 -17 12 -14
25 3 10 1 19 -5 19 -5 0 -8 -10 -6 -22z"/>
<path d="M3542 1175 c0 -16 2 -24 5 -17 2 6 11 12 18 12 7 0 16 -6 18 -12 3
-7 5 1 5 17 0 17 -2 24 -5 18 -2 -7 -11 -13 -18 -13 -7 0 -16 6 -18 13 -3 6
-5 -1 -5 -18z"/>
<path d="M2050 1171 c0 -5 5 -13 10 -16 6 -3 10 -2 10 4 0 5 -4 13 -10 16 -5
3 -10 2 -10 -4z"/>
</g>
</svg>
